<svg xmlns="http://www.w3.org/2000/svg" xmlns:xlink="http://www.w3.org/1999/xlink" width="500" zoomAndPan="magnify" viewBox="0 0 375 374.999991" height="500" preserveAspectRatio="xMidYMid meet" version="1.0"><defs><clipPath id="c34ce87d7b"><path d="M 82 74 L 302 74 L 302 295 L 82 295 Z M 82 74 " clip-rule="nonzero"/></clipPath><clipPath id="d82b198609"><path d="M 42.121094 98.726562 L 99.160156 64.597656 L 148.757812 61.492188 L 233.691406 60.875 L 280.515625 68.941406 L 291.078125 74.738281 L 251.050781 98.105469 L 211.992188 122.304688 L 165.59375 156.4375 L 121.476562 192.429688 L 99.777344 208.5625 L 92.996094 216.628906 L 82.082031 225.316406 L 60.71875 239.3125 L 52.039062 260.6875 L 63.820312 277.441406 L 82.082031 283.925781 L 101.019531 283.925781 L 133.878906 268.753906 L 187.816406 239.3125 L 206.414062 219.109375 L 238.03125 196.152344 L 271.511719 169.46875 L 291.078125 149.019531 L 330.410156 123.546875 L 340.328125 149.019531 L 336.609375 196.773438 L 331.027344 239.3125 L 324.210938 270.617188 L 291.078125 303.503906 L 245.472656 310.949219 L 192.035156 314.054688 L 131.398438 313.433594 L 82.082031 309.710938 L 47.078125 294.847656 L 24.761719 258.203125 L 20.421875 171.949219 L 25.382812 137.820312 Z M 42.121094 98.726562 " clip-rule="evenodd"/></clipPath><clipPath id="043332fa88"><path d="M 36 69 L 354.894531 69 L 354.894531 306 L 36 306 Z M 36 69 " clip-rule="nonzero"/></clipPath></defs><path fill="#ffffff" d="M 280.515625 83.59375 C 266.65625 83.21875 218.195312 110.300781 165.59375 149.019531 C 112.988281 187.734375 72.714844 225.960938 68.941406 239.3125 Z M 280.515625 83.59375 " fill-opacity="1" fill-rule="evenodd"/><g clip-path="url(#c34ce87d7b)"><g clip-path="url(#d82b198609)"><path fill="#ffffff" d="M 257 96.007812 C 275.527344 109.621094 289.421875 128.804688 296.574219 150.6875 C 301.753906 166.53125 303.402344 183.792969 300.722656 201.382812 C 291.574219 261.425781 235.445312 302.734375 175.460938 293.578125 C 115.476562 284.421875 74.203125 228.242188 83.351562 168.203125 C 92.5 108.164062 148.628906 66.851562 208.613281 76.007812 C 226.742188 78.777344 243.164062 85.839844 257 96.007812 M 206.96875 86.804688 C 222.601562 89.191406 236.824219 95.125 248.945312 103.664062 C 267.394531 116.660156 280.96875 135.6875 287.230469 157.433594 C 291.070312 170.769531 292.160156 185.125 289.933594 199.738281 C 281.695312 253.816406 231.136719 291.027344 177.105469 282.78125 C 123.074219 274.53125 85.898438 223.929688 94.136719 169.847656 C 102.378906 115.769531 152.9375 78.558594 206.96875 86.804688 Z M 206.96875 86.804688 " fill-opacity="1" fill-rule="evenodd"/></g></g><path fill="#ffffff" d="M 103.589844 286.351562 C 117.449219 286.726562 165.90625 259.644531 218.511719 220.925781 C 271.117188 182.210938 311.390625 143.984375 315.164062 130.632812 Z M 103.589844 286.351562 " fill-opacity="1" fill-rule="evenodd"/><g clip-path="url(#043332fa88)"><path fill="#ffffff" d="M 357.441406 69.375 C 309.960938 88.867188 245.894531 123.476562 183.644531 169.292969 C 121.398438 215.109375 69.292969 266 36.550781 305.550781 C 87.152344 275.726562 145.714844 238.644531 203.402344 196.183594 C 261.09375 153.726562 313.914062 108.828125 357.441406 69.375 Z M 357.441406 69.375 " fill-opacity="1" fill-rule="evenodd"/></g></svg>